<svg xmlns="http://www.w3.org/2000/svg" viewBox="0 0 480 360" role="img" aria-label="Truffle pasta">
  <rect width="480" height="360" fill="#faf4e8" />
  <ellipse cx="240" cy="240" rx="180" ry="60" fill="#e9c993" />
  <path d="M215 120 c20 -20 60 -20 90 0 c24 18 30 56 16 78 c-14 22 -42 30 -66 26 c-20 -3 -35 -16 -42 -32 c-6 -14 -10 -40 2 -56" fill="#f7e19b" />
  <path d="M195 150 c10 24 34 40 62 40 c26 0 48 -18 60 -44" stroke="#9c6b39" stroke-width="12" fill="none" stroke-linecap="round" />
  <circle cx="235" cy="200" r="8" fill="#7c4f27" />
  <circle cx="275" cy="190" r="9" fill="#7c4f27" />
  <path d="M120 280 c60 10 200 16 260 -6" stroke="#cab190" stroke-width="18" fill="none" stroke-linecap="round" />
</svg>